<?xml version="1.0" encoding="UTF-8" standalone="no"?>
<!DOCTYPE svg PUBLIC "-//W3C//DTD SVG 1.1//EN" "http://www.w3.org/Graphics/SVG/1.1/DTD/svg11.dtd">
<svg width="100%" height="100%" viewBox="0 0 272 30" version="1.1" xmlns="http://www.w3.org/2000/svg" xmlns:xlink="http://www.w3.org/1999/xlink" xml:space="preserve" xmlns:serif="http://www.serif.com/" style="fill-rule:evenodd;clip-rule:evenodd;stroke-linejoin:round;stroke-miterlimit:2;">
    <g transform="matrix(1.55403,0,0,1.55403,-0.164126,-7.86911)">
        <path d="M10.688,14.86C11.664,15.068 12.448,15.556 13.04,16.324C13.632,17.076 13.928,17.94 13.928,18.916C13.928,20.324 13.432,21.444 12.44,22.276C11.464,23.092 10.096,23.5 8.336,23.5L0.488,23.5L0.488,6.652L8.072,6.652C9.784,6.652 11.12,7.044 12.08,7.828C13.056,8.612 13.544,9.676 13.544,11.02C13.544,12.012 13.28,12.836 12.752,13.492C12.24,14.148 11.552,14.604 10.688,14.86ZM4.592,13.468L7.28,13.468C7.952,13.468 8.464,13.324 8.816,13.036C9.184,12.732 9.368,12.292 9.368,11.716C9.368,11.14 9.184,10.7 8.816,10.396C8.464,10.092 7.952,9.94 7.28,9.94L4.592,9.94L4.592,13.468ZM7.616,20.188C8.304,20.188 8.832,20.036 9.2,19.732C9.584,19.412 9.776,18.956 9.776,18.364C9.776,17.772 9.576,17.308 9.176,16.972C8.792,16.636 8.256,16.468 7.568,16.468L4.592,16.468L4.592,20.188L7.616,20.188ZM20.292,16.78C20.292,15.404 20.548,14.196 21.06,13.156C21.588,12.116 22.3,11.316 23.196,10.756C24.092,10.196 25.092,9.916 26.196,9.916C27.14,9.916 27.964,10.108 28.668,10.492C29.388,10.876 29.94,11.38 30.324,12.004L30.324,10.108L34.428,10.108L34.428,23.5L30.324,23.5L30.324,21.604C29.924,22.228 29.364,22.732 28.644,23.116C27.94,23.5 27.116,23.692 26.172,23.692C25.084,23.692 24.092,23.412 23.196,22.852C22.3,22.276 21.588,21.468 21.06,20.428C20.548,19.372 20.292,18.156 20.292,16.78ZM30.324,16.804C30.324,15.78 30.036,14.972 29.46,14.38C28.9,13.788 28.212,13.492 27.396,13.492C26.58,13.492 25.884,13.788 25.308,14.38C24.748,14.956 24.468,15.756 24.468,16.78C24.468,17.804 24.748,18.62 25.308,19.228C25.884,19.82 26.58,20.116 27.396,20.116C28.212,20.116 28.9,19.82 29.46,19.228C30.036,18.636 30.324,17.828 30.324,16.804ZM41.381,16.804C41.381,15.412 41.661,14.196 42.221,13.156C42.797,12.116 43.589,11.316 44.597,10.756C45.621,10.196 46.789,9.916 48.101,9.916C49.781,9.916 51.181,10.356 52.301,11.236C53.437,12.116 54.181,13.356 54.533,14.956L50.165,14.956C49.797,13.932 49.085,13.42 48.029,13.42C47.277,13.42 46.677,13.716 46.229,14.308C45.781,14.884 45.557,15.716 45.557,16.804C45.557,17.892 45.781,18.732 46.229,19.324C46.677,19.9 47.277,20.188 48.029,20.188C49.085,20.188 49.797,19.676 50.165,18.652L54.533,18.652C54.181,20.22 53.437,21.452 52.301,22.348C51.165,23.244 49.765,23.692 48.101,23.692C46.789,23.692 45.621,23.412 44.597,22.852C43.589,22.292 42.797,21.492 42.221,20.452C41.661,19.412 41.381,18.196 41.381,16.804ZM69.713,23.5L65.633,17.884L65.633,23.5L61.529,23.5L61.529,5.74L65.633,5.74L65.633,15.556L69.689,10.108L74.753,10.108L69.185,16.828L74.801,23.5L69.713,23.5Z" style="fill:rgb(34,34,34);fill-rule:nonzero;"/>
        <path d="M89.757,23.5L86.253,17.14L85.269,17.14L85.269,23.5L81.165,23.5L81.165,6.652L88.053,6.652C89.381,6.652 90.509,6.884 91.437,7.348C92.381,7.812 93.085,8.452 93.549,9.268C94.013,10.068 94.245,10.964 94.245,11.956C94.245,13.076 93.925,14.076 93.285,14.956C92.661,15.836 91.733,16.46 90.501,16.828L94.389,23.5L89.757,23.5ZM85.269,14.236L87.813,14.236C88.565,14.236 89.125,14.052 89.493,13.684C89.877,13.316 90.069,12.796 90.069,12.124C90.069,11.484 89.877,10.98 89.493,10.612C89.125,10.244 88.565,10.06 87.813,10.06L85.269,10.06L85.269,14.236ZM107.717,23.692C106.405,23.692 105.221,23.412 104.165,22.852C103.125,22.292 102.301,21.492 101.693,20.452C101.101,19.412 100.805,18.196 100.805,16.804C100.805,15.428 101.109,14.22 101.717,13.18C102.325,12.124 103.157,11.316 104.213,10.756C105.269,10.196 106.453,9.916 107.765,9.916C109.077,9.916 110.261,10.196 111.317,10.756C112.373,11.316 113.205,12.124 113.813,13.18C114.421,14.22 114.725,15.428 114.725,16.804C114.725,18.18 114.413,19.396 113.789,20.452C113.181,21.492 112.341,22.292 111.269,22.852C110.213,23.412 109.029,23.692 107.717,23.692ZM107.717,20.14C108.501,20.14 109.165,19.852 109.709,19.276C110.269,18.7 110.549,17.876 110.549,16.804C110.549,15.732 110.277,14.908 109.733,14.332C109.205,13.756 108.549,13.468 107.765,13.468C106.965,13.468 106.301,13.756 105.773,14.332C105.245,14.892 104.981,15.716 104.981,16.804C104.981,17.876 105.237,18.7 105.749,19.276C106.277,19.852 106.933,20.14 107.717,20.14ZM120.886,16.78C120.886,15.404 121.142,14.196 121.654,13.156C122.182,12.116 122.894,11.316 123.79,10.756C124.686,10.196 125.686,9.916 126.79,9.916C127.734,9.916 128.558,10.108 129.262,10.492C129.982,10.876 130.534,11.38 130.918,12.004L130.918,10.108L135.022,10.108L135.022,23.5L130.918,23.5L130.918,21.604C130.518,22.228 129.958,22.732 129.238,23.116C128.534,23.5 127.71,23.692 126.766,23.692C125.678,23.692 124.686,23.412 123.79,22.852C122.894,22.276 122.182,21.468 121.654,20.428C121.142,19.372 120.886,18.156 120.886,16.78ZM130.918,16.804C130.918,15.78 130.63,14.972 130.054,14.38C129.494,13.788 128.806,13.492 127.99,13.492C127.174,13.492 126.478,13.788 125.902,14.38C125.342,14.956 125.062,15.756 125.062,16.78C125.062,17.804 125.342,18.62 125.902,19.228C126.478,19.82 127.174,20.116 127.99,20.116C128.806,20.116 129.494,19.82 130.054,19.228C130.63,18.636 130.918,17.828 130.918,16.804ZM141.975,16.78C141.975,15.404 142.231,14.196 142.743,13.156C143.271,12.116 143.983,11.316 144.879,10.756C145.775,10.196 146.775,9.916 147.879,9.916C148.759,9.916 149.559,10.1 150.279,10.468C151.015,10.836 151.591,11.332 152.007,11.956L152.007,5.74L156.111,5.74L156.111,23.5L152.007,23.5L152.007,21.58C151.623,22.22 151.071,22.732 150.351,23.116C149.647,23.5 148.823,23.692 147.879,23.692C146.775,23.692 145.775,23.412 144.879,22.852C143.983,22.276 143.271,21.468 142.743,20.428C142.231,19.372 141.975,18.156 141.975,16.78ZM152.007,16.804C152.007,15.78 151.719,14.972 151.143,14.38C150.583,13.788 149.895,13.492 149.079,13.492C148.263,13.492 147.567,13.788 146.991,14.38C146.431,14.956 146.151,15.756 146.151,16.78C146.151,17.804 146.431,18.62 146.991,19.228C147.567,19.82 148.263,20.116 149.079,20.116C149.895,20.116 150.583,19.82 151.143,19.228C151.719,18.636 152.007,17.828 152.007,16.804ZM169.328,23.692C168.16,23.692 167.12,23.492 166.208,23.092C165.296,22.692 164.576,22.148 164.048,21.46C163.52,20.756 163.224,19.972 163.16,19.108L167.216,19.108C167.264,19.572 167.48,19.948 167.864,20.236C168.248,20.524 168.72,20.668 169.28,20.668C169.792,20.668 170.184,20.572 170.456,20.38C170.744,20.172 170.888,19.908 170.888,19.588C170.888,19.204 170.688,18.924 170.288,18.748C169.888,18.556 169.24,18.348 168.344,18.124C167.384,17.9 166.584,17.668 165.944,17.428C165.304,17.172 164.752,16.78 164.288,16.252C163.824,15.708 163.592,14.98 163.592,14.068C163.592,13.3 163.8,12.604 164.216,11.98C164.648,11.34 165.272,10.836 166.088,10.468C166.92,10.1 167.904,9.916 169.04,9.916C170.72,9.916 172.04,10.332 173,11.164C173.976,11.996 174.536,13.1 174.68,14.476L170.888,14.476C170.824,14.012 170.616,13.644 170.264,13.372C169.928,13.1 169.48,12.964 168.92,12.964C168.44,12.964 168.072,13.06 167.816,13.252C167.56,13.428 167.432,13.676 167.432,13.996C167.432,14.38 167.632,14.668 168.032,14.86C168.448,15.052 169.088,15.244 169.952,15.436C170.944,15.692 171.752,15.948 172.376,16.204C173,16.444 173.544,16.844 174.008,17.404C174.488,17.948 174.736,18.684 174.752,19.612C174.752,20.396 174.528,21.1 174.08,21.724C173.648,22.332 173.016,22.812 172.184,23.164C171.368,23.516 170.416,23.692 169.328,23.692Z" style="fill:rgb(63,208,212);fill-rule:nonzero;"/>
    </g>
</svg>
